<?xml version="1.0" encoding="UTF-8" standalone="no"?>
<!-- Created with Inkscape (http://www.inkscape.org/) -->

<svg
   xmlns:dc="http://purl.org/dc/elements/1.1/"
   xmlns:cc="http://creativecommons.org/ns#"
   xmlns:rdf="http://www.w3.org/1999/02/22-rdf-syntax-ns#"
   xmlns:svg="http://www.w3.org/2000/svg"
   xmlns="http://www.w3.org/2000/svg"
   xmlns:sodipodi="http://sodipodi.sourceforge.net/DTD/sodipodi-0.dtd"
   xmlns:inkscape="http://www.inkscape.org/namespaces/inkscape"
   width="32"
   height="32"
   viewBox="0 0 31.999999 31.999998"
   id="svg2"
   version="1.1"
   inkscape:version="0.91 r13725"
   sodipodi:docname="sismoIcon.svg">
  <defs
     id="defs4" />
  <sodipodi:namedview
     id="base"
     pagecolor="#ffffff"
     bordercolor="#666666"
     borderopacity="1.0"
     inkscape:pageopacity="0.0"
     inkscape:pageshadow="2"
     inkscape:zoom="7.919596"
     inkscape:cx="27.950142"
     inkscape:cy="10.87741"
     inkscape:document-units="px"
     inkscape:current-layer="layer1"
     showgrid="false"
     inkscape:window-width="1920"
     inkscape:window-height="1029"
     inkscape:window-x="0"
     inkscape:window-y="0"
     inkscape:window-maximized="1"
     units="px"
     inkscape:snap-global="true"
     inkscape:snap-bbox="true"
     inkscape:bbox-nodes="true" />
  <metadata
     id="metadata7">
    <rdf:RDF>
      <cc:Work
         rdf:about="">
        <dc:format>image/svg+xml</dc:format>
        <dc:type
           rdf:resource="http://purl.org/dc/dcmitype/StillImage" />
        <dc:title />
      </cc:Work>
    </rdf:RDF>
  </metadata>
  <g
     inkscape:label="Layer 1"
     inkscape:groupmode="layer"
     id="layer1"
     transform="translate(0,-1020.3622)">
    <path
       style="fill:#ff0000;stroke:#000000;stroke-width:0.49999994;stroke-miterlimit:4;stroke-dasharray:none"
       d="m 16.010743,1027.2499 a 9.0895627,9.0895637 0 0 0 -9.0898441,9.0898 9.0895627,9.0895637 0 0 0 9.0898441,9.0899 9.0895627,9.0895637 0 0 0 9.089843,-9.0899 9.0895627,9.0895637 0 0 0 -9.089843,-9.0898 z m 0,1.8711 a 7.2189393,7.2198779 0 0 1 7.21875,7.2187 7.2189393,7.2198779 0 0 1 -7.21875,7.2188 7.2189393,7.2198779 0 0 1 -7.2207041,-7.2188 7.2189393,7.2198779 0 0 1 7.2207041,-7.2187 z"
       id="path4156"
       inkscape:connector-curvature="0" />
    <path
       style="fill:#ff0000;stroke:#000000;stroke-width:0.49999994;stroke-miterlimit:4;stroke-dasharray:none"
       d="M 16.011719 1.4296875 A 14.54815 14.54815 0 0 0 1.4628906 15.978516 A 14.54815 14.54815 0 0 0 16.011719 30.525391 A 14.54815 14.54815 0 0 0 30.558594 15.978516 A 14.54815 14.54815 0 0 0 16.011719 1.4296875 z M 16.011719 3.2675781 A 12.709268 12.710223 0 0 1 28.720703 15.976562 A 12.709268 12.710223 0 0 1 16.011719 28.6875 A 12.709268 12.710223 0 0 1 3.3007812 15.976562 A 12.709268 12.710223 0 0 1 16.011719 3.2675781 z "
       transform="translate(0,1020.3622)"
       id="path4150" />
    <ellipse
       style="fill:#ff0000;stroke:#000000;stroke-width:0.49999994;stroke-miterlimit:4;stroke-dasharray:none"
       id="path4155"
       cx="-1036.3397"
       cy="16.010788"
       rx="2.5916274"
       ry="2.5916276"
       transform="matrix(4.3711388e-8,-1,1,4.3711392e-8,0,0)" />
  </g>
</svg>
